<svg xmlns="http://www.w3.org/2000/svg" viewBox="0 0 359.96 90.64"><defs><style>.cls-1{fill:#807f83;}.cls-2{fill:#8691c2;}.cls-3{fill:#bbc03e;}.cls-4{fill:#f15b2b;}.cls-5{fill:#40c1c4;}</style></defs><title>main logo</title><g id="Layer_2" data-name="Layer 2"><g id="Layer_1-2" data-name="Layer 1"><path class="cls-1" d="M301.08,51.86c5.24-11.54,9.14-16.49,9.14-16.49C317,27.13,331.5,19.19,331.5,19.19a48.84,48.84,0,0,0-22.93,12.29c.45-16-5.69-21.58-5.69-21.58,2.69,7.49,2.09,19.18,2.09,19.18-.9,8.54-3.89,22.78-3.89,22.78"/><path class="cls-1" d="M357.42,34.78s-7-13.38-24.67-10.52c1.89-.25,16.85-1.49,23.62,12.47,0,0,6.31,14.91-10,23.82,0,0-7.94,5-21.88,1.5,0,0,7.5,11.09-2.09,19.33,0,0-12.89,10.49-23.68.15,0,0-5.25-3.3-1.95-19.48a87.67,87.67,0,0,1-8.09,8.54s-8.09,8.54-18.58-1.35c0,0-9.29-9.89-2.55-21.73a12.88,12.88,0,0,1,6.89-5.09s-14.53-11.09-12.13-24.58c0,0,1.5-13.78,15.43-16.18,0,0,10.79-1.95,21.58,11.39,0,0-7.34-13.49-21.88-13,0,0-15.67.59-18.28,18.88A28.88,28.88,0,0,0,268,41.67s-10.49,7.49-6.14,21.73a20.86,20.86,0,0,0,16,15.13A16.48,16.48,0,0,0,291,74.79s.3,13.18,16.48,15.73c0,0,12.14,2,21-9.89,0,0,4.34-6.74,2.1-13.94,0,0,12.14,2.7,23.07-7.49,0,0,11.16-11.68,3.75-24.42"/><path class="cls-2" d="M323,68.59c-1.8-5.8-9.7-13.54-16.5-11.43s-9.93,13.27-8.12,19.08S307.19,85,314,82.93,324.85,74.4,323,68.59"/><path class="cls-3" d="M332.28,26.75c-10.48,1.86-26,11.76-24.33,21.15s19.89,14.69,30.37,12.82,17.61-11,15.94-20.35-11.51-15.48-22-13.62"/><path class="cls-4" d="M276.16,47.17c5.91-1.36,16.52,1.43,18.09,8.16s-6.47,14.86-12.37,16.22-12-3-13.55-9.73,1.94-13.29,7.83-14.65"/><path class="cls-5" d="M297.24,14.63c5,9.19,6.83,27.16-1.39,31.61s-23.44-6.31-28.4-15.49-2.33-20.24,5.9-24.69,18.92-.61,23.89,8.57"/><path class="cls-1" d="M17.15,80.87C7.71,80.87,1.38,76.51.2,69.2L0,68H4.54l.18.82c1.06,4.93,5.45,7.63,12.36,7.63,3.67,0,7-1.15,8.83-3.07a5.05,5.05,0,0,0,1.37-3.92c-.09-3-2-5.28-11-6.57l-.18,0C9.86,62,2.13,60.82,2,53.21,2,48.05,6.8,42.82,16,42.82c8.13,0,13.48,3.69,15.07,10.39l.3,1.29H26.75l-.22-.74c-1.3-4.26-4.91-6.51-10.45-6.51-3.46,0-6.41,1-8.1,2.7a4.42,4.42,0,0,0-1.37,3.22c0,2.91,2.46,4.13,10.35,5.24,7.54,1.13,14.58,3.22,15,10.84a10.17,10.17,0,0,1-2.69,7.3c-2.67,2.75-7.07,4.32-12.07,4.32"/><path class="cls-1" d="M69.75,63.77a16.49,16.49,0,0,1-4.6,11.93,15.51,15.51,0,0,1-11.64,4.77A15.49,15.49,0,0,1,41.88,75.7a16.46,16.46,0,0,1-4.61-11.93v-21h4.9V64.4a10.76,10.76,0,0,0,3.4,8,11.13,11.13,0,0,0,15.88,0,10.77,10.77,0,0,0,3.41-8V42.82h4.89Z"/><path class="cls-1" d="M228.06,63.34H196a13.25,13.25,0,0,0,4.58,8.89A13.61,13.61,0,0,0,210,75.68q8.46-.12,12.09-7.83h5.08a18.46,18.46,0,0,1-17.36,12.59,17.6,17.6,0,0,1-13-5.35,18.65,18.65,0,0,1-.09-26.88,17.52,17.52,0,0,1,13.81-5.36A18.3,18.3,0,0,1,223,48.74a17.15,17.15,0,0,1,5.08,12ZM223.36,59a13.81,13.81,0,0,0-4.7-8.11A14,14,0,0,0,196,59Z"/><path class="cls-1" d="M238.23,42.82s0,3.84,0,3.89.12-.12.17-.18a12.43,12.43,0,0,1,10.19-3.6,14.83,14.83,0,0,1,8.09,3l-2.38,4.16a7.93,7.93,0,0,0-6-2.49,10.36,10.36,0,0,0-7,2.64,8.47,8.47,0,0,0-2.9,6.57V80.44h-5.16V42.82Z"/><path class="cls-1" d="M185.82,80.39h-5.09V57.83a11.2,11.2,0,0,0-2.46-7.29,7.87,7.87,0,0,0-6.44-3,10.06,10.06,0,0,0-7,2.65,8.47,8.47,0,0,0-2.94,6.57V80.39h-5.15V56.73a8.47,8.47,0,0,0-2.94-6.57,10,10,0,0,0-7-2.65,7.74,7.74,0,0,0-6.38,3,11.4,11.4,0,0,0-2.39,7.32V80.39H133v-22q0-6.9,3.93-11.09a14.45,14.45,0,0,1,9.67-4.45q8-.65,12.76,6.83,4.77-7.47,12.77-6.83a14.69,14.69,0,0,1,9.73,4.45q4,4.18,4,11.09Z"/><path class="cls-1" d="M127.88,80.39h-5.09V57.83a11.25,11.25,0,0,0-2.45-7.29,7.91,7.91,0,0,0-6.45-3,10.06,10.06,0,0,0-7,2.65A8.47,8.47,0,0,0,104,56.73V80.39H98.81V56.73a8.47,8.47,0,0,0-2.94-6.57,10,10,0,0,0-7-2.65,7.74,7.74,0,0,0-6.38,3,11.4,11.4,0,0,0-2.39,7.32V80.39H75v-22q0-6.9,3.93-11.09a14.43,14.43,0,0,1,9.67-4.45q8-.65,12.77,6.83,4.76-7.47,12.76-6.83a14.69,14.69,0,0,1,9.73,4.45q4,4.18,4,11.09Z"/><path class="cls-1" d="M251.81,79.22a4.06,4.06,0,1,0-4.25-4.06,4.16,4.16,0,0,0,4.25,4.06m0-7.44a3.39,3.39,0,1,1-3.54,3.38,3.46,3.46,0,0,1,3.54-3.38m-1.11,3.77h.44c.56,0,.78.2,1.35,1.17l.41.69h.89l-.55-.85c-.36-.58-.66-1-1.06-1.09v0a1.28,1.28,0,0,0,1.31-1.26c0-.47-.39-1.14-1.51-1.14h-2v4.36h.74Zm0-1.91h1.19c.47,0,.81.25.81.64s-.37.67-.94.67H250.7Z"/></g></g></svg>